<?xml version="1.0"?>
<svg version="1.1" id="main" xmlns="http://www.w3.org/2000/svg" xmlns:xlink="http://www.w3.org/1999/xlink" x="0px" y="0px" viewBox="0 0 300 500" enable-background="new 0 0 300 500" xml:space="preserve" width="300" height="500">
<g id="shadow" opacity="0.25">
	<path fill="#162636" d="M261.2,240.4c7.3,0.3,7.9-3.9,9.3-15.2c0.8-6.5,0-11-2.5-13.4c-1.7-1.7-3.7-1.6-4.4-1.6l-1.7-0.1l1-8.2
		c2.1-1.1,3.6-3.2,3.9-5.7c0.5-4.1-2.4-7.9-6.6-8.4c-4.1-0.5-7.9,2.4-8.4,6.6c-0.2,1.7,0.2,3.2,0.9,4.6l0,0c-0.1,0-0.2,0-0.3,0
		c-2.1,0.4-3.7,2.8-5.5,5.6c-0.6,1-1.4,2.8-2,3.6c-9.9-4.7-25.6-9.1-32.1-10.1c3.5-7,12.4-26.9,16.9-40.7c4.1-4.6,5.6-10.1,4.3-16.5
		l-0.2-1c-3.3-17-7.5-35.1-16.4-35.6c-3.4-0.2-7.1,0.4-10.7,1c-5.6,0.9-11.3,1.8-16,0c0.1,0,0.1,0,0.2,0c1.5,0.2,3,0.1,4.4-0.3
		c8.6-2.7,12.7-18.5,9.7-28.8c-1.4-4.7-3.6-7.9-5.7-10.9c-0.5-0.7-0.9-1.3-1.4-2c0,0,0,0,0,0c0.7-1.5,1.8-3.8,3.4-7.3l1.2-2.7
		l-2.9,0.2c-2.4,0.2-4.6-0.1-6.6-0.5c-0.2-0.6-0.3-1.1-0.5-1.7c-2.9-11.7-10.9-24.1-12.7-26.7c0.3-1.4,0.4-2.8,0.4-4.2
		c-0.1-3.1-1.1-5.7-3.1-7.6c-3.3-3.2-9.1-4.5-18.1-4.2c-15.2,0.5-36.4,7.4-46.3,24.9c-9.9,17.5,2.8,39.5,9.4,48.3
		c-4.1,1.1-7.6,4.3-9.6,6.5c-6.4-8.4-16.8-11.3-24.7-12.3c-15.5-1.9-24.3,5.1-29,11.3c-5,6.7-6.2,13.7-6.3,14l0,0.1l0,0.1
		c0,0.5-2.1,45.5-7.4,91.4c-15.5,12.7-23.1,33.6-18.9,52.6c1.5,6.7,4.4,12.9,8.5,18.3c-0.1,0.7-0.2,1.3-0.3,1.9
		c-1.1,6.2-1.9,10.7-2.3,14.2c-1.3,10.8,0,21.2,0,21.7l0.1,0.6l0.4,0.4c0.1,0.1,1.2,1.1,3.9,2.6c0.7,2.7,3,10.6,6.2,15.9l0.3,0.5
		l0.6,0.2c3.3,1.2,8.8,2.4,14.1,3.2c-1.5,0.6-3,1.3-4.4,2.2c-2.4,1.5-4.5,3.4-6.1,5.7c-1.7,2.3-2.9,4.9-3.6,7.7
		c-1.1,4.6-1.1,8.9,0.1,13.3c1.1,4.1,3,7.8,5.1,11.8c3.1,6.1,6.4,12.4,6.9,20.4c0.3,4.4-0.3,8.7-1.7,13.4c-0.6,1.9-1.3,3.8-2.2,5.8
		c1-0.6,2-1.3,3-1.9c4.9-3.3,9.6-7.3,13.9-11.8c4.8-5,9.1-10.4,12.7-16.2c4-6.4,7.1-13.2,9.2-20.3c1.9-6.3,1.3-12.9-1.8-18.7
		c-2.1-3.9-5.1-7.2-8.8-9.4c1.8,0,3.5,0,4.8-0.2l0.6-0.1l0.4-0.4c4-3.8,7.6-9.9,9.4-12.9c3.4-0.7,4.6-1.6,4.9-1.8l0.5-0.4l1.2-4.7
		c0.6,3.6,1.5,6.9,2.6,9.9c-7.7,1.8-14.2,7.3-16.2,15.4c0,0.2-0.1,0.3-0.1,0.5c0.9,1.2,1.8,2.4,2.5,3.8c2.9,5.5,3.7,11.8,2,17.9
		c4.8,9.3,9.6,18.8-1.9,37c13.2-5.1,33.1-21.3,40.6-46c0.3-0.9,0.5-1.8,0.6-2.7c2,0.8,4.2,1.5,6.4,2.2c11.2,3.4,23.1,10.6,31.7,19.2
		c9.5,9.6,14.2,20,13,29.2c-2.4,19.7-5.2,42-44,68c-2.9,1.9-4.5,4.1-4.8,6.6c-0.4,4.4,3.5,8.2,5.8,10.5c1.5,1.5,7.5,6.9,13.3,12.1
		c9.6,8.5,11.7,9.9,12.8,10c0.2,0,0.4,0,0.6,0c1.5-0.3,2.8-2.1,3.5-3.8c0.7-2,1.4-6.1-2.3-10.9c-3.9-4.9-4.1-9,5.4-17
		c3.9,5.4,8.3,11.2,9.6,11.9c1,0.6,2.3,0.4,3.2-0.6c1.6-1.7,2.3-5.8,0.8-7.9l-0.1-0.2c-1.3-1.9-4.8-7-0.9-15.6
		c6.6-7.7,13.6-17.8,19.3-30c9.3-6.4,19.9-14.3,28.2-25.2c3.1-4.1,5.8-8.5,8-13.1c0.1-0.1,0.1-0.2,0.2-0.3c4-8.4,6.6-17.8,7.9-28.3
		c2.4-19.4-1.2-41.4-14.4-58.4c-0.3-0.5-1-1.4-1.9-2.7c-6.2-9.2-12.2-21.6-17.3-35.3c26.2-1,33.5-5.4,40.7-11.9l1.3-10.2
		c-0.3,0-0.6,0-0.9,0c0.6,0,1.3,0,1.9,0.1C259.9,240.4,260.6,240.4,261.2,240.4z M37.3,249.4c-0.9-2.2-1.5-4.3-1.9-6.1
		c-2.7-12.1,0.5-25.2,8-35.4C41.1,225.4,39,238.8,37.3,249.4z M86.4,344.9c-0.8,15-9.5,27.8-17.4,33.3l-4.1,2.9l1.6-4.7
		c3.7-11.2,0-15.4-3.9-19.8c-3-3.4-6-6.9-6.1-13.1c0-3.8,1.5-7.3,4.3-10c3-2.9,7.2-4.4,11.3-4.2C80.5,329.6,86.8,336.7,86.4,344.9z
		 M110.2,361.3l-3.1,2.2l1.2-3.6c2.8-8.5,0-11.7-2.9-15.1c-2.3-2.6-4.6-5.2-4.6-10c0-2.9,1.2-5.6,3.3-7.6c1.3-1.2,2.9-2.2,4.6-2.7
		c0.5,0.8,1,1.5,1.6,2.2c-1.6,0.3-3.2,1.1-4.4,2.3c-1.6,1.6-2.5,3.6-2.5,5.8c0,3.8,1.9,5.9,4,8.3c2.7,3.1,5.7,6.5,4.5,13.6
		c4.4-4.4,8.5-11.8,9.2-20.2c0.8,0.5,1.6,1,2.4,1.5C122,348.5,115.8,357.4,110.2,361.3z M248.3,248.7c-8.5,6.3-29.1,4.6-35.4,3.9
		c-3.4-10.8-5.8-21-6.7-28.8c2.6,1.1,7,2.4,13.1,2.8c1.3,0.1,2.6,0.2,3.9,0.2c8.5,0.5,18.2,1.1,21.1,3.7c0,0,0.5,1.7,1,2.5
		c-0.3,0.6-0.5,1.2-0.5,1.9c0,0.9,0.3,2.5,2.3,3.6c0.6,0.4,1.4,0.7,2.4,0.9L248.3,248.7z"></path>
	<path fill="#162636" d="M63.2,335.8c-2.2,2.1-3.3,4.8-3.3,7.6c0,5,2.4,7.7,5.2,10.9c3.5,4,7.5,8.5,5.8,17.9
		c5.9-6,11.5-16,12.1-27.5c0.3-6.1-4.1-11.4-10.2-12.1c-0.3,0-0.5-0.1-0.8-0.1C68.8,332.3,65.6,333.5,63.2,335.8z"></path>
</g>
<g id="character">
	<path fill="#FFFFFF" d="M149.4,20.1c-0.4-3.6,2-9.6,2-9.6s2.9-1.5,6.4-1.8C153.3,10.1,149.4,20.1,149.4,20.1z"></path>
	<path fill="#5596C0" d="M181.6,451.9c-2.1-0.6-7.4-2.3-11.1-5.2c-3.4-2.6-4.3-6.3-4.4-7.8c0.8-0.8,1.7-1.6,2.4-2.5
		c0.7,2.2,2.2,5,5.5,7.3c3.7,2.6,8.1,4,10.9,4.8C183.7,449.7,182.6,450.8,181.6,451.9z"></path>
	<path fill="#FFFFFF" d="M128.9,76.4c3.2,3.4,6.4,5.4,8.7,6.9c1.3,0.8,2.4,1.5,2.9,2.1c0.3,0.4-0.4,2.3-1.6,4
		c-2.8,1.5-10.1,2.1-17.3,2.3c-0.2-2-0.9-5.3-3-8.9C120.7,80.3,125,76.3,128.9,76.4z"></path>
	<path fill="#FFFFFF" d="M88,314.8c-0.5,0-1.1,0.1-1.7,0.1l3.9-5.5c0.4-0.6,0.3-1.4-0.3-1.8c-0.6-0.4-1.4-0.3-1.8,0.3l-5,7.1
		c-1,0-2,0-3-0.1l2.5-5.7c0.3-0.7,0-1.4-0.7-1.7c-0.7-0.3-1.4,0-1.7,0.7l-2.9,6.6c-1.1-0.1-2.3-0.2-3.4-0.2l1.3-6.5
		c0.1-0.7-0.3-1.4-1-1.5c-0.7-0.1-1.4,0.3-1.5,1l-1.4,6.8c-0.9-0.1-1.8-0.2-2.6-0.3c-0.8-0.1-1.7-0.2-2.6-0.4l0.2-7.4
		c0-0.7-0.6-1.3-1.3-1.3c-0.7,0-1.3,0.6-1.3,1.3l-0.2,7.1c-1.2-0.2-2.4-0.4-3.7-0.6l-0.9-7.9c-0.1-0.7-0.7-1.2-1.5-1.2
		c-0.7,0.1-1.2,0.7-1.2,1.5L57,312c-1.1-0.2-2.2-0.5-3.2-0.7l-2.6-8.5c-0.2-0.7-0.9-1.1-1.6-0.9c-0.7,0.2-1.1,0.9-0.9,1.6l2.1,7
		c-0.4-0.1-0.8-0.2-1.2-0.4c-2.1-3.5-3.7-8.3-4.7-11.6c5.3,2.1,13.5,4.5,26.2,6c11.2,1.4,18.8,1.4,23.8,0.9
		C93.2,308.4,90.7,312.1,88,314.8z"></path>
	<path fill="#FFFFFF" d="M101.7,300.6c-0.8,0.4-2.1,0.8-3.9,1.1l-0.4-0.2c0,0-0.1,0.1-0.2,0.3c-4.8,0.7-12.9,0.9-25.6-0.7
		c-19.1-2.3-28.9-6.8-31.8-9.1c-0.2-1.4-0.5-4.9-0.5-9.4c4.7,2.8,14.9,7.4,31.7,9.4c16.6,2,28.2,0.2,33.4-1.4L101.7,300.6z"></path>
	<path fill="#FFFFFF" d="M108.6,196.1c-4.6-3.7-9.4-6.3-12.2-7.7c2.8-2.4,6.6-5.8,7.3-7.4c0-0.1,0.2-0.4,0.4-0.7
		c0.7-1.2,2-3.4,3.3-6.2C108.1,179.6,108.5,187.6,108.6,196.1z"></path>
	<path fill="#FFFFFF" d="M69.3,141.8C69.3,141.8,69.3,141.8,69.3,141.8c-2.3,4.8-4.7,12.1-5.1,22.2c-0.7,18.8-0.1,22.5,0,22.9
		c0.1,0.4,0.7,3.2,2.9,4.3c1.8,3.9,11,22.3,26.1,32.9c4.8,3.4,9.9,6.6,14.7,9.4c-0.1,3.3-0.2,5.5-0.2,5.8c-0.1,1-1.7,20.6-2.4,36.7
		c-4,0.8-20.3,3.9-32.8,2.4c-22.5-2.8-30.5-10.1-32-11.6c0.4-2.5,0.9-5.4,1.5-8.9c2.4-13.3,5.9-33.5,10-66.6
		c3.1-25.3,5.2-50.8,6.5-69.6c2.5,0.9,7.1,2.2,13.9,3.1c0.4,0,0.8,0.1,1.1,0.1c-4.2,4.9-5.3,6.5-5.4,7.4
		C67.7,135.7,68.2,138.9,69.3,141.8z"></path>
	<path fill="#FFFFFF" d="M109.3,91.3c-8.5-0.7-13.6,7-16.3,11.1l-0.1,0.2c-1,1.5-5.8,6.9-10.4,12.1c-0.2,0.2-0.3,0.4-0.5,0.5
		c-13.9-1.8-20.5-4.4-22.7-5.4c0.6-9.5,0.9-15.7,0.9-16.6c0.2-0.8,1.5-6.9,5.7-12.5c5.9-7.9,14.5-11.2,25.6-9.9
		c22,2.7,25.9,16,26.6,20.8C114.8,91.6,111.7,91.5,109.3,91.3z"></path>
	<path fill="#5596C0" d="M123.5,242.3c2.9,1.6,5.4,3,5.9,3.4l0.1,0.1c0.3,0.2,7.6,4.9,13.5,5.6c0.5,0.1,0.9,0.1,1.4,0.1
		c4.8,0,6.9-0.2,9.8-0.5c1.3-0.2,2.3-1,2.8-2.2c0.5-1.2,0.4-2.6-0.1-3.9c0.5-0.4,0.8-0.9,1-1.5c0.5-1.2,0.4-2.6-0.1-3.9
		c0.5-0.4,0.8-0.9,1-1.5c0.5-1.2,0.4-2.6-0.1-3.9c0.5-0.4,0.8-0.9,1-1.5c0.6-1.6,0.3-3.9-0.9-5.3c-0.8-0.9-1.9-1.4-3-1.1
		c-1.5,0.3-7.5,0.4-10.5,0.1c0.9-1.1,2.3-2.3,2.9-2.7c1.5-0.6,3.3-3.5,3.7-5.3c0.3-1.6-0.3-3-1.5-3.8c-1.1-0.7-2.5-0.7-4.3-0.2
		c-3,0.9-7.1,3.6-8.7,6.7c-0.9,1.9-3.2,4-4.9,5.4c-3.2-4.7-12.8-18.7-19.2-25.8c-0.5-0.5-1-1-1.5-1.5c-0.1-10.1,0.6-21.4-0.3-27.9
		c4.2-5.7,14.7-20.5,15.4-25.6c0.8-6.3-4.5-16.3-4.7-16.8c0,0,1.8,12,1.3,16.3c-0.3,2.7-5.2,10.4-10.1,17.6c0-0.2,0.1-0.5,0.1-0.8
		c0.5-6-0.8-15.1-9.5-23.9c-8.7-8.8-17.8-10.3-23.8-10.1c-2.1,0.1-4.1,0.4-5.7,0.8c2.9-3.4,7.2-8.2,10.4-11.9
		c5.1-5.8,9.6-10.7,10.7-12.5l0.1-0.2c2.5-3.8,6.7-10.1,13.1-9.6c6.5,0.5,23,0.7,30.1-1.8c3.4,7.5,14.7,19.7,31.6,21.8
		c9,1.1,15.8-0.3,20.2-4.3c2.7-2.4,4.3-5.8,4.7-9.7c5,1.3,10.5,0.4,15.7-0.4c3.6-0.6,6.9-1.1,10-0.9c0.1,0,0.1,0,0.2,0
		c6.7,0.8,11.2,24,12.9,32.7l0.2,1c1.9,9.7-4.1,14.3-6.3,16.1l-0.2,0.2c-0.9,0.7-4.7,2-8.6,3c0-4.5-0.4-9.2-1.3-14.1
		c0,0,0,19.8-7.9,49.3c-1.8,6.7-3.5,13.1-3.9,18.8c-0.9,13.4,7.3,45.4,20,70.6c-5.7-5.2-13.2-10.5-22-13.7c0,0,5.8,3.5,14,10.9
		c-9-4.9-19.9-8.4-33.1-10c-29.2-3.6-49.4,2.6-61.1,8.5c-7.6,3.8-12.7,7.9-15.7,10.6c0.3-16.9,2.6-43.6,2.7-43.9l0-0.1
		c0-0.3,0.1-1.7,0.2-3.9c0,0,0,0,0,0C116.1,238.2,120.3,240.5,123.5,242.3z"></path>
	<path fill="#FFFFFF" d="M212.4,411.4c3.9-9.4,6.9-19.9,8.2-31.3c2.4-19.7,0.2-36.3-7.1-52.3c-4.3-9.4-10-17.9-17-26.6
		c0-0.1-0.1-0.1-0.1-0.2c-0.2-0.3-0.5-0.9-0.9-1.5c-0.7-1.2-1.5-2.9-2.2-4.7c-0.2-0.4-0.3-0.9-0.4-1.3c-0.1-0.4-0.2-0.9-0.3-1.3
		c-0.1-0.4-0.2-0.9-0.2-1.3c0-0.4-0.1-0.8,0-1.1c0-0.4,0.1-0.7,0.1-1c0.1-0.3,0.1-0.5,0.2-0.7c0.1-0.2,0.2-0.3,0.2-0.4
		c0.1-0.1,0.1-0.2,0.1-0.2s0,0-0.1,0.1c-0.1,0.1-0.2,0.2-0.3,0.4c-0.1,0.2-0.3,0.4-0.4,0.7c-0.1,0.3-0.2,0.6-0.3,1
		c-0.1,0.4-0.2,0.8-0.2,1.2c-0.1,0.4-0.1,0.9-0.1,1.4c0,0.5,0,1,0,1.5c0,0.5,0.1,1,0.2,1.5c0,0,0,0.1,0,0.1c-2.1-2.5-4.4-5-6.7-7.6
		l-0.4-0.5l-0.6-0.1c-0.4-0.1-9.4-1.4-15.5,0.3c0,0,11.5,0.4,14.4,3.1c21.6,24,39.1,47.3,34.6,87.7c-5.7,0.2-8.4-2.1-8.6-2.2
		c-0.7-0.6-1.8-0.6-2.5,0.1c-0.7,0.7-0.6,1.8,0.1,2.5c0.1,0.1,2.7,2.4,7.7,3c0.9,0.1,1.8,0.2,2.8,0.1c-1.7,12.3-5.4,23.6-10,33.5
		c-4.5,9.6-11.1,20.5-19.4,30.1c0,0-0.1,0.1-0.1,0.2c-2.1-0.4-7.4-1.8-11.5-4.6c-3.8-2.7-4.5-6.2-4.6-7.6c4.2-4.8,7.7-9.8,10.4-14.9
		c6-11.3,7.7-21.9,9.1-33.6c0,0,0,0,0,0l0,0c0,0,0,0,0,0c0.2-1.7,0.2-3.4,0.1-5.1c0,0,0-0.1,0-0.1c0-0.4,0-0.8,0-1.2
		c0-0.4,0-0.9-0.1-1.3c0-0.9-0.1-1.8-0.2-2.8c-0.1-1-0.2-2-0.3-3c-0.1-0.5-0.1-1-0.2-1.5c-0.1-0.5-0.2-1-0.3-1.5
		c-0.1-0.5-0.2-1-0.3-1.5c-0.1-0.5-0.2-1-0.4-1.5c-0.1-0.5-0.2-1-0.4-1.5c-0.1-0.5-0.3-1-0.4-1.4c-0.1-0.5-0.3-0.9-0.5-1.4
		c-0.2-0.4-0.3-0.9-0.5-1.3c-0.3-0.8-0.6-1.6-1-2.3c-0.2-0.3-0.3-0.7-0.5-1c-0.2-0.3-0.3-0.6-0.5-0.9c-0.3-0.5-0.6-1-0.8-1.4
		c-0.5-0.8-0.8-1.2-0.8-1.2s0.2,0.5,0.6,1.3c0.2,0.4,0.4,0.9,0.7,1.5c0.1,0.3,0.3,0.6,0.4,0.9c0.1,0.3,0.2,0.7,0.4,1
		c0.3,0.7,0.5,1.5,0.7,2.3c0.1,0.4,0.2,0.9,0.3,1.3c0.1,0.4,0.2,0.9,0.3,1.4c0.1,0.5,0.2,0.9,0.3,1.4c0.1,0.5,0.1,1,0.2,1.5
		c0.1,0.5,0.1,1,0.2,1.5c0,0.5,0.1,1,0.1,1.5c0,0.2,0,0.3,0,0.5c-7.1-16.2-26.1-30.8-44.6-36.3c-23.8-7.1-34.3-20.3-35-44.2
		c1.5-1.7,7.1-7.5,17.4-12.6c20.4-10.1,43.3-10,58.9-8.1c13,1.6,24.5,5.3,33.9,10.9c8.6,5.1,15.6,11.7,20.9,19.8
		c9.3,14.2,13.1,32.5,10.7,51.6c-1.3,10.5-3.9,19.2-7.3,26.7c-3.7,1.2-7.3-1.2-7.4-1.2c-0.8-0.5-1.9-0.3-2.4,0.5
		c-0.5,0.8-0.3,1.9,0.5,2.4c0.1,0.1,2.5,1.7,5.7,2.1c0.5,0.1,1.1,0.1,1.7,0.1C233.8,394.4,223.3,403.6,212.4,411.4z"></path>
	<path fill="#FFFFFF" d="M253.5,228c2.4,0.8,8,0.5,9.9,0.5c0.7,0,1.4,0,2,0.1c3.8,0.2,4.1-0.1,5.6-12.1c0.9-7-0.5-9.5-1.4-10.4
		c-0.8-0.7-1.6-0.6-1.6-0.6l-0.2,0l-2.3-0.1l-0.2,1.7c0.4,0.1,0.9,0.2,1.2,0.3l-0.1,1.8c-5.8-0.5-10.8-0.8-13.4-0.2
		c-2.6,0.6-2,3.4,0.3,3.5c2.3,0.1,3.3,0.1,12.4,0.8l-0.1,1.8c-5.6-0.4-10.2-0.1-12.2-0.1s-2.6,2.8-0.8,3.3c1.8,0.5,4.5-0.5,12.8,0.1
		l-0.1,1.7c-5-0.4-9.6,0.2-11.5,0.2c-1.9,0-2.7,2.8-0.7,3c2,0.2,3.8,0.1,12,1l-0.2,1.6c-5.1-0.5-10-0.4-11.8-0.4
		C252.8,225.4,251.7,227.4,253.5,228z"></path>
	<g>
		<path fill="#162636" d="M236.9,294.5c-0.6-0.9-1.2-1.8-1.9-2.7c-15.9-19.5-30.6-28.4-30.6-28.4c8.9,3.2,16.3,8.5,22,13.7
			c-12.7-25.2-20.9-57.2-20-70.6c0.4-5.7,2.1-12.1,3.9-18.8c7.9-29.5,7.9-49.3,7.9-49.3c3.5,20.1-0.9,36.8-4.5,50.2
			c-1.8,6.9-3.4,12.8-3.8,18.2c-0.6,8.1,2.4,23.4,7.8,39.8c5.5,16.7,12.6,32.1,19.9,42.9c1.3,1.7,2,2.9,2.1,3.1L236.9,294.5z"></path>
	</g>
	<path fill="#162636" d="M246,378.9c4-8.4,6.6-17.8,7.9-28.3c4.3-35.4-11-79.2-68.6-86.3c-29.2-3.6-49.4,2.6-61.1,8.5
		c-12.8,6.4-18.6,13.6-18.8,13.9l-0.4,0.5l0,0.6c0.3,13.6,3.7,24,10.3,31.9c6,7.2,14.9,12.5,27.2,16.2c11.2,3.4,23.1,10.6,31.7,19.2
		c9.5,9.6,14.2,20,13,29.2c-2.4,19.7-5.2,42-44,68c-2.9,1.9-4.5,4.1-4.8,6.6c-0.4,4.4,3.5,8.2,5.8,10.5c1.5,1.5,7.5,6.9,13.3,12.1
		c9.6,8.5,11.7,9.9,12.8,10c0.2,0,0.4,0,0.6,0c1.5-0.3,2.8-2.1,3.5-3.8c0.7-2,1.4-6.1-2.3-10.9c-3.9-4.9-4.1-9,5.4-17
		c3.9,5.4,8.3,11.2,9.6,11.9c1,0.6,2.3,0.4,3.2-0.6c1.6-1.7,2.3-5.8,0.8-7.9l-0.1-0.2c-1.3-1.9-4.8-7-0.9-15.6
		c6.6-7.7,13.6-17.8,19.3-30c9.3-6.4,19.9-14.3,28.2-25.2c3.1-4.1,5.8-8.5,8-13.1C245.9,379.1,246,379,246,378.9z M181.6,451.9
		c-2.1-0.6-7.4-2.3-11.1-5.2c-3.4-2.6-4.3-6.3-4.4-7.8c0.8-0.8,1.7-1.6,2.4-2.5c0.7,2.2,2.2,5,5.5,7.3c3.7,2.6,8.1,4,10.9,4.8
		C183.7,449.7,182.6,450.8,181.6,451.9z M212.4,411.4c3.9-9.4,6.9-19.9,8.2-31.3c2.4-19.7,0.2-36.3-7.1-52.3
		c-4.3-9.4-10-17.9-17-26.6c0-0.1-0.1-0.1-0.1-0.2c-0.2-0.3-0.5-0.9-0.9-1.5c-0.7-1.2-1.5-2.9-2.2-4.7c-0.2-0.4-0.3-0.9-0.4-1.3
		c-0.1-0.4-0.2-0.9-0.3-1.3c-0.1-0.4-0.2-0.9-0.2-1.3c0-0.4-0.1-0.8,0-1.1c0-0.4,0.1-0.7,0.1-1c0.1-0.3,0.1-0.5,0.2-0.7
		c0.1-0.2,0.2-0.3,0.2-0.4c0.1-0.1,0.1-0.2,0.1-0.2s0,0-0.1,0.1c-0.1,0.1-0.2,0.2-0.3,0.4c-0.1,0.2-0.3,0.4-0.4,0.7
		c-0.1,0.3-0.2,0.6-0.3,1c-0.1,0.4-0.2,0.8-0.2,1.2c-0.1,0.4-0.1,0.9-0.1,1.4c0,0.5,0,1,0,1.5c0,0.5,0.1,1,0.2,1.5c0,0,0,0.1,0,0.1
		c-2.1-2.5-4.4-5-6.7-7.6l-0.4-0.5l-0.6-0.1c-0.4-0.1-9.4-1.4-15.5,0.3c0,0,11.5,0.4,14.4,3.1c21.6,24,39.1,47.3,34.6,87.7
		c-5.7,0.2-8.4-2.1-8.6-2.2c-0.7-0.6-1.8-0.6-2.5,0.1c-0.7,0.7-0.6,1.8,0.1,2.5c0.1,0.1,2.7,2.4,7.7,3c0.9,0.1,1.8,0.2,2.8,0.1
		c-1.7,12.3-5.4,23.6-10,33.5c-4.5,9.6-11.1,20.5-19.4,30.1c0,0-0.1,0.1-0.1,0.2c-2.1-0.4-7.4-1.8-11.5-4.6
		c-3.8-2.7-4.5-6.2-4.6-7.6c4.2-4.8,7.7-9.8,10.4-14.9c6-11.3,7.7-21.9,9.1-33.6c0,0,0,0,0,0l0,0c0,0,0,0,0,0
		c0.2-1.7,0.2-3.4,0.1-5.1c0,0,0-0.1,0-0.1c0-0.4,0-0.8,0-1.2c0-0.4,0-0.9-0.1-1.3c0-0.9-0.1-1.8-0.2-2.8c-0.1-1-0.2-2-0.3-3
		c-0.1-0.5-0.1-1-0.2-1.5c-0.1-0.5-0.2-1-0.3-1.5c-0.1-0.5-0.2-1-0.3-1.5c-0.1-0.5-0.2-1-0.4-1.5c-0.1-0.5-0.2-1-0.4-1.5
		c-0.1-0.5-0.3-1-0.4-1.4c-0.1-0.5-0.3-0.9-0.5-1.4c-0.2-0.4-0.3-0.9-0.5-1.3c-0.3-0.8-0.6-1.6-1-2.3c-0.2-0.3-0.3-0.7-0.5-1
		c-0.2-0.3-0.3-0.6-0.5-0.9c-0.3-0.5-0.6-1-0.8-1.4c-0.5-0.8-0.8-1.2-0.8-1.2s0.2,0.5,0.6,1.3c0.2,0.4,0.4,0.9,0.7,1.5
		c0.1,0.3,0.3,0.6,0.4,0.9c0.1,0.3,0.2,0.7,0.4,1c0.3,0.7,0.5,1.5,0.7,2.3c0.1,0.4,0.2,0.9,0.3,1.3c0.1,0.4,0.2,0.9,0.3,1.4
		c0.1,0.5,0.2,0.9,0.3,1.4c0.1,0.5,0.1,1,0.2,1.5c0.1,0.5,0.1,1,0.2,1.5c0,0.5,0.1,1,0.1,1.5c0,0.2,0,0.3,0,0.5
		c-7.1-16.2-26.1-30.8-44.6-36.3c-23.8-7.1-34.3-20.3-35-44.2c1.5-1.7,7.1-7.5,17.4-12.6c20.4-10.1,43.3-10,58.9-8.1
		c13,1.6,24.5,5.3,33.9,10.9c8.6,5.1,15.6,11.7,20.9,19.8c9.3,14.2,13.1,32.5,10.7,51.6c-1.3,10.5-3.9,19.2-7.3,26.7
		c-3.7,1.2-7.3-1.2-7.4-1.2c-0.8-0.5-1.9-0.3-2.4,0.5c-0.5,0.8-0.3,1.9,0.5,2.4c0.1,0.1,2.5,1.7,5.7,2.1c0.5,0.1,1.1,0.1,1.7,0.1
		C233.8,394.4,223.3,403.6,212.4,411.4z"></path>
	<g>
		<path fill="#FFFFFF" d="M228.7,151.5l-9.2,1.6c0,13.4-3,25-5.7,34.8C216.8,181.9,224.2,165,228.7,151.5z"></path>
		<path fill="#FFFFFF" d="M258,194.9c-0.2-0.3-0.5-0.5-1-0.6c-0.8,0.6-2.2,2.7-3,4c-1.1,1.7-2.2,4.2-3.3,5.1l-0.9,0.8l-1.1-0.6
			c-11.4-5.9-32.6-10.7-34.5-10.7l-1.6,0c-1.3,5.1-2.4,9.6-2.6,13.8c-0.1,1.4-0.1,2.9,0,4.7c1.7,0.9,6.2,2.8,13.7,3.3
			c1.3,0.1,2.6,0.2,3.9,0.2c8.5,0.5,17.8,2,22.4,4.3c-1-1-0.7-4.5,0.9-5.3c-2.8-1.9-1.4-6,0.7-6.9c0.8-0.3,2.8-0.5,5.2-0.5l0.2-1.5
			l-2.1-0.1l3-7.4L258,194.9z"></path>
	</g>
	<g>
		<path fill="#162636" d="M110.3,173.4l-2.9-2c0.4-0.6,7.9-13.3-6.9-28.2c-14.9-15-28.7-5.5-29.4-5.2l-2-7.1
			c0.2-0.1,4.7-2.5,11.3-2.7c6.1-0.3,15.1,1.3,23.8,10.1c8.7,8.8,10,17.8,9.5,23.9c0,0.3,0,0.5-0.1,0.8c4.9-7.1,9.8-14.9,10.1-17.6
			c0.5-4.3-1.3-16.3-1.3-16.3c0.2,0.4,5.5,10.5,4.7,16.8C126.5,151.8,112,171.2,110.3,173.4z"></path>
	</g>
	<path fill="#162636" d="M123.6,145.9c0,0,0.1-0.3,0.2-0.8c0.1-0.5,0.3-1.3,0.5-2.2c0.4-1.8,1-4.2,1.7-6.5c0.7-2.3,1.5-4.7,2.4-6.3
		c0.2-0.4,0.4-0.8,0.6-1.1c0.2-0.3,0.4-0.6,0.6-0.8c0.2-0.2,0.3-0.3,0.5-0.4c0.1-0.1,0.2-0.1,0.2-0.1s-0.1,0.1-0.1,0.2
		c-0.1,0.1-0.2,0.3-0.4,0.5c-0.1,0.2-0.3,0.5-0.4,0.8c-0.1,0.3-0.3,0.7-0.4,1.1c-0.5,1.7-0.9,4.1-1.1,6.4c-0.2,2.4-0.4,4.8-0.4,6.6
		c0,0.9,0,1.6-0.1,2.2c0,0.5,0,0.8,0,0.8L123.6,145.9z"></path>
	<g>
		<path fill="#162636" d="M110.4,170.5l-1.6,0.1c-0.4,1.3-0.9,2.4-1.4,3.5c0.7,5.5,1.1,13.4,1.2,22c1.2,1,2.4,2,3.6,3.2
			c-0.1-10.6,0.6-22.5-0.4-28.8L110.4,170.5z"></path>
		<path fill="#162636" d="M108.6,285.2c0.2-16.7,2.7-45.4,2.7-45.7l0-0.1c0-0.3,0.1-1.7,0.2-3.9c-1.1-0.7-2.3-1.3-3.4-2
			c-0.1,3.3-0.2,5.5-0.2,5.8c-0.1,1.3-2.8,32.6-2.7,48.6c0,0,1.3,1.6,0.7,4c6.9-7.6,24.8-12.7,24.8-12.7
			C117.9,278.7,110.8,283.8,108.6,285.2z"></path>
		<path fill="#162636" d="M238.1,132.5l-0.2-1c-3.3-17-7.5-35.1-16.4-35.6c-3.4-0.2-7.1,0.4-10.7,1c-5.6,0.9-11.4,1.8-16.2-0.1
			l-2.5-1l0.1,2.7c0.1,2.7-0.5,6.5-3.7,9.4c-3.5,3.2-9.5,4.4-17.4,3.4c-16.6-2-27.5-15-29.4-21.1l-0.7-2.2l-1.9,1.2
			c-4.1,2.5-21.7,2.8-29.9,2.1c-8.5-0.7-13.6,7-16.3,11.1l-0.1,0.2c-1,1.5-5.8,6.9-10.4,12.1c-11.7,13.1-14.1,16.1-14.3,17.5
			c-0.4,3.4,0.1,6.6,1.2,9.6c0.9-1.8,1.7-3.3,2.5-4.4c-0.3-1.8-0.3-3.3-0.2-4.6c0.9-1.7,8.5-10.2,13.5-15.8
			c5.1-5.8,9.6-10.7,10.7-12.5l0.1-0.2c2.5-3.8,6.7-10.1,13.1-9.6c6.5,0.5,23,0.7,30.1-1.8c3.4,7.5,14.7,19.7,31.6,21.8
			c9,1.1,15.8-0.3,20.2-4.3c2.7-2.4,4.3-5.8,4.7-9.7c5,1.3,10.5,0.4,15.7-0.4c3.6-0.6,6.9-1.1,10-0.9c0.1,0,0.1,0,0.2,0
			c6.7,0.8,11.2,24,12.9,32.7l0.2,1c1.9,9.7-4.1,14.3-6.3,16.1l-0.2,0.2c-1,0.8-6.3,2.5-10.7,3.6l0.9,3.4c1.6-0.4,9.9-2.6,12-4.2
			l0.2-0.2C237.1,147,239.7,140.4,238.1,132.5z"></path>
	</g>
	<path fill="#162636" d="M110.6,172.7c0,0,0.1,0.1,0.1,0.2c0,0.1,0.1,0.1,0.2,0.2c0,0,0.1,0.1,0.1,0.2c0,0,0.1,0.1,0.1,0.1
		c0.2,0.2,0.3,0.4,0.6,0.7c0.2,0.3,0.6,0.6,0.9,0.9c0.4,0.3,0.7,0.7,1.2,1c0.4,0.3,0.9,0.7,1.4,1c0.5,0.3,1.1,0.7,1.6,1
		c0.6,0.3,1.2,0.6,1.8,0.9c0.6,0.3,1.2,0.5,1.8,0.8c0.6,0.2,1.2,0.5,1.8,0.7c0.6,0.2,1.2,0.4,1.7,0.5c0.6,0.1,1.1,0.3,1.6,0.4
		c0.5,0.1,1,0.2,1.4,0.3c0.4,0.1,0.8,0.1,1.1,0.2c0.6,0.1,0.9,0.2,0.9,0.2s-0.3,0-0.9,0c-0.3,0-0.7,0-1.1,0c-0.4,0-0.9,0-1.4-0.1
		c-0.5,0-1.1-0.1-1.7-0.1c-0.6,0-1.2-0.2-1.9-0.2c-0.6-0.1-1.3-0.2-2-0.4c-0.7-0.2-1.3-0.3-2-0.5c-0.7-0.2-1.3-0.4-2-0.6
		c-0.7-0.2-1.3-0.5-1.9-0.8c-0.6-0.3-1.2-0.6-1.7-0.9c-0.6-0.3-1.1-0.6-1.5-0.9c-0.5-0.3-0.9-0.6-1.2-0.9c-0.4-0.3-0.7-0.6-1-0.8
		c-0.1-0.1-0.1-0.1-0.2-0.2c0,0-0.1-0.1-0.1-0.1c-0.1-0.1-0.2-0.2-0.2-0.2c-0.1-0.1-0.2-0.2-0.2-0.2L110.6,172.7z"></path>
	<path fill="#162636" d="M193.8,202.2c0,0,0,0.6-0.1,1.5c-0.1,1-0.3,2.4-0.8,4c-0.4,1.6-1,3.5-1.8,5.4c-0.4,1-0.9,2-1.4,2.9
		c-0.5,1-1.1,2-1.7,2.9c-0.3,0.5-0.6,0.9-0.9,1.4c-0.3,0.5-0.7,0.9-1,1.4c-0.7,0.9-1.4,1.7-2.1,2.5c-0.7,0.8-1.5,1.5-2.3,2.1
		c-0.8,0.6-1.5,1.2-2.2,1.6c-0.4,0.2-0.7,0.4-1.1,0.6c-0.3,0.2-0.7,0.3-1,0.5c-0.6,0.3-1.2,0.5-1.6,0.7c-0.5,0.2-0.9,0.3-1.1,0.3
		c-0.3,0.1-0.4,0.1-0.4,0.1s0.1-0.1,0.3-0.3c0.2-0.2,0.5-0.4,0.8-0.8c0.3-0.3,0.8-0.7,1.2-1.2c0.2-0.2,0.5-0.5,0.7-0.7
		c0.2-0.3,0.5-0.5,0.8-0.8c0.5-0.6,1.1-1.2,1.7-1.9c0.6-0.7,1.2-1.4,1.8-2.2c0.3-0.4,0.6-0.8,0.9-1.2c0.3-0.4,0.6-0.8,0.9-1.3
		c0.6-0.9,1.2-1.7,1.7-2.6c0.3-0.4,0.6-0.9,0.8-1.3c0.3-0.5,0.6-0.9,0.8-1.3c0.3-0.4,0.5-0.9,0.8-1.3c0.3-0.4,0.5-0.9,0.8-1.3
		c1-1.8,1.9-3.4,2.7-4.8c0.8-1.4,1.5-2.6,2-3.4c0.2-0.4,0.4-0.7,0.6-1C193.8,202.4,193.8,202.2,193.8,202.2z"></path>
	<path fill="#162636" d="M173.5,236.9c0,0,0.2-0.5,0.7-1.4c0.5-0.9,1.2-2.2,2-3.6c0.9-1.5,2-3.1,3.2-4.9c0.6-0.9,1.3-1.8,1.9-2.7
		c0.7-0.9,1.4-1.8,2.1-2.7c0.7-0.9,1.4-1.8,2.2-2.6c0.7-0.9,1.4-1.7,2.2-2.5c1.4-1.6,2.8-3,4.1-4.2c1.2-1.2,2.3-2.2,3.1-2.8
		c0.8-0.7,1.3-1,1.3-1s-0.2,0.5-0.7,1.4c-0.5,0.9-1.2,2.2-2,3.6c-0.9,1.5-2,3.1-3.2,4.9c-0.6,0.9-1.3,1.8-1.9,2.7
		c-0.7,0.9-1.4,1.8-2.1,2.7c-0.7,0.9-1.4,1.8-2.2,2.6c-0.7,0.9-1.4,1.7-2.2,2.5c-1.4,1.6-2.8,3-4.1,4.2c-1.2,1.2-2.3,2.2-3.1,2.8
		C174,236.6,173.5,236.9,173.5,236.9z"></path>
	<path fill="#162636" d="M213,191.3c0,0-0.1,0.4-0.4,1c-0.2,0.7-0.6,1.6-1,2.6c-0.4,1.1-0.9,2.3-1.5,3.6c-0.6,1.3-1.2,2.7-1.9,4.1
		c-0.7,1.4-1.4,2.7-2.1,4c-0.3,0.6-0.7,1.2-1,1.8c-0.3,0.6-0.7,1.1-1,1.6c-0.3,0.5-0.6,0.9-0.9,1.3c-0.3,0.4-0.6,0.7-0.8,0.9
		c-0.5,0.5-0.8,0.7-0.8,0.7s0.2-0.3,0.6-0.8c0.2-0.3,0.4-0.6,0.6-1c0.2-0.4,0.5-0.9,0.7-1.4c0.2-0.5,0.5-1.1,0.8-1.7
		c0.2-0.6,0.5-1.2,0.8-1.9c0.5-1.3,1-2.7,1.5-4.2c0.5-1.4,0.9-2.9,1.3-4.2c0.4-1.4,0.7-2.6,1-3.7c0.3-1.1,0.5-2,0.6-2.6
		c0.1-0.6,0.2-1,0.2-1L213,191.3z"></path>
	<path fill="#162636" d="M155.6,113.4c0,0,0.6,0.2,1.6,0.5c1,0.3,2.4,0.7,4.1,1.2c1.7,0.5,3.7,1,5.8,1.4c0.5,0.1,1.1,0.2,1.6,0.3
		c0.3,0.1,0.5,0.1,0.8,0.1c0.3,0,0.5,0.1,0.8,0.1c1.1,0.1,2.2,0.2,3.3,0.2c0.1,0,0.3,0,0.4,0l0.4,0l0.9,0c0.6,0,1.1,0,1.7,0
		c0.6,0,1.1,0,1.7-0.1c0.6,0,1.1-0.1,1.6-0.1c1.1-0.1,2.1-0.2,3.1-0.3c1-0.1,1.9-0.3,2.7-0.5c0.8-0.2,1.6-0.4,2.3-0.7
		c0.3-0.1,0.6-0.2,0.9-0.3c0.3-0.1,0.6-0.2,0.8-0.3c0.5-0.2,0.9-0.4,1.1-0.5c0.3-0.1,0.4-0.2,0.4-0.2s-0.1,0.1-0.3,0.3
		c-0.2,0.2-0.4,0.6-0.8,0.9c-0.2,0.2-0.4,0.4-0.7,0.6c-0.2,0.2-0.5,0.4-0.8,0.7c-0.6,0.4-1.3,0.9-2.2,1.4c-0.4,0.2-0.9,0.4-1.3,0.6
		c-0.5,0.2-1,0.4-1.5,0.6c-1,0.3-2.1,0.6-3.3,0.9c-1.1,0.2-2.3,0.4-3.6,0.5c-0.6,0-1.2,0.1-1.8,0.1l-0.9,0l-0.4,0
		c-0.2,0-0.3,0-0.5,0c-0.6,0-1.3,0-1.9-0.1c-0.3,0-0.6-0.1-0.9-0.1c-0.3,0-0.6-0.1-0.9-0.1c-1.2-0.2-2.4-0.5-3.5-0.8
		c-2.2-0.7-4.2-1.6-5.8-2.5c-0.8-0.4-1.5-0.9-2.1-1.3c-0.6-0.4-1.1-0.8-1.6-1.1c-0.4-0.3-0.7-0.6-1-0.8
		C155.7,113.5,155.6,113.4,155.6,113.4z"></path>
	<g>
		<path fill="#162636" d="M129.8,62.8l-3.6-2.5c2.5-7.1,8.9-10.9,11.9-13.2l0.4,4.1C134.8,54,131.8,57.3,129.8,62.8z"></path>
	</g>
	<g>
		<path fill="#162636" d="M127.7,57.5l-1.7-6.4c0.1-0.3,2.9-4.5,11.3-9.7l0.3,3.8C130.2,49.8,127.7,57.4,127.7,57.5z"></path>
	</g>
	<line fill="none" x1="194" y1="98.5" x2="193" y2="94.9"></line>
	<g>
		<path fill="#162636" d="M200.6,57.4l-2.1-1.5c0,0,0-1.7,2.6-7.4c-9.1-0.6-13.8-7.2-14-7.5l1.1-0.8c0.2,0.3,6.6,5.4,15.5,4.8
			l2.9-0.2l-1.2,2.7C201.8,55.6,200.8,57.1,200.6,57.4z"></path>
	</g>
	<g>
		<path fill="#162636" d="M209.2,67.8c-1.4-4.7-3.6-7.9-5.7-10.9c-0.5-0.7-0.9-1.3-1.4-2c-0.9,1.9-1.3,2.4-1.4,2.6l-2.1-1.5
			c0.7,1,1.3,2,2,3c2.1,3,4,5.8,5.3,10c2.8,9.3-1.2,22.6-7.4,24.5c-3.2,1-7.9-1.2-12.1-3.1c-4.5-2.1-9.4-4.2-11.9-2.7
			c-2.5,1.5-3.8,5.4-3.8,5.4s3.2-2.4,5-3.1c1.8-0.7,5.8,1.9,9.3,3.6c3.3,1.5,6.8,3.2,10.2,3.6c1.5,0.2,3,0.1,4.4-0.3
			C208.1,93.9,212.2,78.1,209.2,67.8z"></path>
		<path fill="#162636" d="M197.1,44.5c-0.2-0.6-0.3-1.1-0.5-1.7c-3.2-12.9-12.6-26.6-13-27.2l-2.9,2c0.1,0.1,9.2,13.4,12.4,25.6
			C194.3,43.7,195.6,44.1,197.1,44.5z"></path>
	</g>
	<ellipse transform="matrix(0.454 -0.891 0.891 0.454 57.7099 203.9153)" fill="#162636" cx="195.2" cy="54.9" rx="2.5" ry="1.2"></ellipse>
	<g>
		<path fill="#162636" d="M136.4,72.5c-2-0.6-4.5-1.4-6-3.4c-1.1-1.5-1.5-3.6-1.1-5.8c0.6-3.2,2.9-6.1,6.3-8.2
			c2.9-1.7,6.4-1.6,9.2,1.1c1.8,1.7,2.5,4.2,2.5,4.2s-5.4-5.1-9.9-2.3c-2.5,1.5-4.2,3.7-4.6,5.9c-0.2,1.2-0.1,2.3,0.5,3
			c0.8,1.1,2.6,1.6,4.2,2.1c1.3,0.4,2.5,0.8,3.5,1.5C140.9,70.7,137.4,72.8,136.4,72.5z"></path>
	</g>
	<path fill="#162636" d="M135.5,65c0,0-0.1-0.2-0.1-0.5c0-0.3-0.1-0.8,0-1.3c0.1-0.5,0.3-1.1,0.6-1.7c0.3-0.6,0.9-1.2,1.6-1.6
		c0.3-0.2,0.7-0.4,1.1-0.5l0.3-0.1l0.3,0c0.2,0,0.4,0,0.6,0c0.4,0,0.7,0,1,0.1c0.3,0.1,0.6,0.2,0.8,0.3c0.5,0.2,0.8,0.5,1.1,0.7
		c0.2,0.2,0.3,0.4,0.3,0.4s-0.2,0-0.5,0.1c-0.1,0-0.3,0-0.5,0.1c-0.2,0-0.4,0-0.6,0.1c-0.1,0-0.2,0-0.3,0.1c-0.1,0-0.2,0-0.4,0.1
		c-0.2,0-0.5,0.1-0.7,0.2c-0.5,0.1-0.9,0.3-1.3,0.6c-0.2,0.1-0.4,0.3-0.6,0.4c-0.2,0.2-0.4,0.3-0.6,0.5c-0.4,0.4-0.7,0.7-1,1.1
		C135.9,64.5,135.5,65,135.5,65z"></path>
	<g>
		<path fill="#162636" d="M182.6,40.9c0,0,0.2-3.4-3.5-4c-3.7-0.7-14.5,4.7-18.6,12c0,0,12-11.6,17.5-9c2.2,1,2.3,3,2.3,3
			L182.6,40.9z"></path>
		<path fill="#162636" d="M175.7,39.6c4,3,0.6,5.7-0.9,6.7s-3.4,2.1-6.2,0.8c-2.8-1.3-0.5-4-0.5-4l3.3-2.6l3-1.5L175.7,39.6z"></path>
	</g>
	<g>
		<path fill="#162636" d="M187.8,74.4c-1-0.1-2.2-1.3-2.9-1.8l1-1.9c0.6,0.5,2.7,0.3,4.3,0c1.5-0.2,3.4-0.8,5.5-1.7
			c3.7-1.5,6.5-2.7,7.3-2.6l0.2,1.4C200.4,68.8,193.5,75.1,187.8,74.4z"></path>
	</g>
	<g>
		<path fill="#162636" d="M119.5,94.1l-0.3-2.2c-0.2-1.6-0.8-4.7-2.7-8.1l-0.8-1.5l1.1-1.3c1.4-1.7,6.6-7.3,12.1-7.2l1,0l0.7,0.7
			c3,3.2,6.1,5.1,8.3,6.5c1.5,0.9,2.6,1.7,3.4,2.5c1.8,2-0.4,5.6-1.4,7.1l-0.3,0.5l-0.5,0.3c-3.5,1.9-12,2.4-18.4,2.6L119.5,94.1z
			 M121.6,83.1c1.1,2.2,1.7,4.3,2.1,6.1c7.4-0.3,11.8-1,13.7-1.7c0.3-0.4,0.5-0.8,0.6-1.1c-0.5-0.3-1.1-0.7-1.6-1
			c-2.2-1.4-5.2-3.3-8.4-6.4C126,79.3,123.6,81.1,121.6,83.1z"></path>
	</g>
	<path fill="#162636" d="M184.3,11.8c-0.1-3.1-1.1-5.7-3.1-7.6c-3.3-3.2-9.1-4.5-18.1-4.2c-15.2,0.5-36.4,7.4-46.3,24.9
		c-11.1,19.7,6.4,45.2,11.6,50.9c3.4,3.7,6.8,5.8,9.2,7.4c1.3,0.8,2.4,1.5,2.9,2.1c0.4,0.4-0.4,2.6-1.8,4.3c0,0,0,0,0,0l1.4,1.1
		l1.4,1.1c0.7-1,4.3-5.9,1.6-8.8c-0.3-0.4-0.8-0.7-1.2-1.1c-0.6-2.7-4-8.4-9.8-16.3c-8.9-12.3-2.3-21.4-1.9-21.9l4.2-4.4l-1.3-1
		c-0.1-0.2-0.8-1.2-1-3.6c9-9.8,22.6-8.1,22.8-8.1l1.8,0.1l0-1.9c0-0.4,0.3-9.7,9.2-10.8c1.9-0.2,5.1-0.3,5.9,1.6
		c0.6,1.5,1.2,7-2.8,7.5c-2.5,0.3-3.3-3.3-1-6.1l-0.6-1.3l-1.4,0.4c-1.5,0.9-3.4,2.9-3,6.5c0.4,3.1,2.5,6.6,7.3,6.8
		c3.2,0.1,6.3-1.1,8.8-3.6C182.5,22.3,184.4,17.1,184.3,11.8z M149.4,20.1c-0.4-3.6,2-9.6,2-9.6s2.9-1.5,6.4-1.8
		C153.3,10.1,149.4,20.1,149.4,20.1z"></path>
	<path fill="#162636" d="M59,103.5C59,103.5,59,103.5,59,103.5C59.1,103.6,59.1,103.6,59,103.5c0.2,0.1,0.3,0.3,0.5,0.4
		c0.2,0.1,0.5,0.3,0.8,0.5c0.3,0.2,0.7,0.4,1.1,0.6c0.4,0.2,0.9,0.4,1.4,0.6c0.5,0.2,1,0.4,1.6,0.7c0.5,0.2,1.1,0.4,1.7,0.6
		c0.6,0.2,1.2,0.4,1.8,0.6c0.6,0.2,1.2,0.4,1.8,0.5c0.6,0.2,1.2,0.3,1.8,0.5c0.6,0.2,1.2,0.3,1.7,0.4c0.5,0.1,1.1,0.2,1.5,0.4
		c0.5,0.1,0.9,0.2,1.3,0.3c0.4,0.1,0.7,0.1,1,0.2c0.6,0.1,0.9,0.2,0.9,0.2s-0.3,0-0.9,0c-0.3,0-0.6,0-1,0c-0.4,0-0.8,0-1.3-0.1
		c-0.5,0-1-0.1-1.6-0.1c-0.6,0-1.2-0.1-1.8-0.1c-0.6-0.1-1.2-0.1-1.9-0.2c-0.6-0.1-1.3-0.1-1.9-0.2c-0.7-0.1-1.3-0.2-1.9-0.3
		c-0.6-0.1-1.3-0.2-1.9-0.4c-0.6-0.1-1.2-0.3-1.8-0.4c-0.6-0.1-1.1-0.3-1.6-0.4c-0.5-0.2-0.9-0.3-1.3-0.5c-0.4-0.2-0.8-0.3-1.1-0.4
		c-0.3-0.1-0.5-0.3-0.7-0.4c-0.2-0.1-0.3-0.2-0.3-0.2L59,103.5z"></path>
	<path fill="#162636" d="M59.1,100.6c0,0,0,0,0.1,0.1c0.1,0.1,0.2,0.1,0.4,0.2c0.4,0.2,0.9,0.5,1.5,0.8c1.3,0.7,3,1.5,4.8,2.2
		c0.9,0.4,1.8,0.7,2.7,1c0.4,0.2,0.9,0.3,1.3,0.4c0.4,0.1,0.8,0.2,1.1,0.3c0.7,0.2,1.3,0.3,1.7,0.4c0.4,0.1,0.7,0.2,0.7,0.2
		s-0.2,0-0.7,0c-0.4,0-1.1,0-1.8,0c-0.4,0-0.8,0-1.2-0.1c-0.4,0-0.9-0.1-1.3-0.1c-0.9-0.1-1.9-0.2-2.9-0.4c-2-0.3-4-0.8-5.4-1.2
		c-0.7-0.2-1.4-0.4-1.8-0.5c-0.2-0.1-0.4-0.1-0.5-0.2c-0.1,0-0.2-0.1-0.2-0.1L59.1,100.6z"></path>
	<path fill="#162636" d="M106.8,272.1C106.8,272.1,106.8,272.1,106.8,272.1c-0.1,0-0.1,0-0.1,0.1c-0.1,0-0.2,0.1-0.5,0.2
		c-0.2,0.1-0.5,0.2-0.9,0.3c-0.3,0.1-0.7,0.2-1.2,0.3c-0.4,0.1-0.9,0.2-1.5,0.3c-0.5,0.1-1.1,0.2-1.7,0.3c-0.6,0.1-1.2,0.1-1.8,0.2
		c-0.6,0.1-1.3,0.1-1.9,0.1c-0.6,0.1-1.3,0.1-1.9,0.1c-0.6,0-1.3,0-1.9,0c-0.6,0-1.2,0-1.7,0c-0.6,0-1.1,0-1.6,0c-0.5,0-0.9,0-1.3,0
		c-0.4,0-0.7,0-1,0c-0.6,0-0.9,0-0.9,0s0.3,0.1,0.9,0.2c0.3,0.1,0.6,0.1,1,0.2c0.4,0.1,0.8,0.2,1.3,0.3c0.5,0.1,1,0.2,1.6,0.3
		c0.6,0.1,1.1,0.2,1.7,0.3c0.6,0.1,1.2,0.2,1.9,0.3c0.6,0.1,1.3,0.2,1.9,0.2c0.7,0.1,1.3,0.1,2,0.2c0.7,0,1.3,0.1,1.9,0.1
		c0.6,0,1.2,0,1.8,0c0.6,0,1.1,0,1.6-0.1c0.5,0,1-0.1,1.4-0.1c0.4-0.1,0.8-0.1,1.1-0.2c0.3-0.1,0.6-0.1,0.8-0.2
		c0.2-0.1,0.3-0.1,0.3-0.1L106.8,272.1z"></path>
	<path fill="#162636" d="M107.4,269.2c0,0-0.1,0-0.2,0.1c-0.1,0-0.3,0.1-0.4,0.1c-0.4,0.1-1,0.3-1.7,0.4c-1.4,0.3-3.3,0.7-5.2,1
		c-1,0.1-1.9,0.2-2.9,0.3c-0.5,0-0.9,0.1-1.3,0.1c-0.4,0-0.8,0-1.2,0c-0.7,0-1.4,0-1.8,0c-0.4,0-0.7,0-0.7,0s0.2,0.1,0.7,0.2
		c0.4,0.1,1,0.2,1.8,0.4c0.4,0.1,0.8,0.2,1.2,0.2c0.4,0.1,0.9,0.2,1.3,0.2c0.9,0.1,1.9,0.3,2.9,0.3c2,0.2,4,0.2,5.6,0.2
		c0.8,0,1.4,0,1.9-0.1c0.2,0,0.4,0,0.5,0c0.1,0,0.2,0,0.2,0L107.4,269.2z"></path>
	<path fill="#162636" d="M107.8,278.9l-1.5-3.2c0,0-19.3,4.3-33.7,2.6c-22.5-2.8-30.5-10.1-32-11.6c0.4-2.5,0.9-5.4,1.5-8.9
		c2.4-13.3,5.9-33.5,10-66.6c3.1-25.3,5.2-50.8,6.5-69.6c2.5,0.9,7.1,2.2,13.9,3.1c1.4,0.2,2.9,0.3,4.6,0.5l5.9-9.7
		c-14.5-1.8-21.3-4.5-23.6-5.5c0.6-9.5,0.9-15.7,0.9-16.6c0.2-0.8,1.5-6.9,5.7-12.5c5.9-7.9,14.5-11.2,25.6-9.9
		c26.5,3.3,26.7,21.7,26.7,22.5l3.5,0c0-0.2,0-5.8-3.7-11.8c-6.2-9.9-17.6-13.2-26.1-14.3c-15.5-1.9-24.3,5.1-29,11.3
		c-5,6.7-6.2,13.7-6.3,14l0,0.1l0,0.1c0,0.5-2.3,49.8-8.2,97.8c-4.1,33-7.6,53.1-9.9,66.4c-1.1,6.2-1.9,10.7-2.3,14.2
		c-1.3,10.8,0,21.2,0,21.7l0.1,0.6l0.4,0.4c0.1,0.1,1.2,1.1,3.9,2.6c0.7,2.7,3,10.6,6.2,15.9l0.3,0.5l0.6,0.2
		c4.7,1.7,13.8,3.4,20.4,4.2c6.6,0.8,15.8,1.4,20.8,0.9l0.6-0.1l0.4-0.4c4-3.8,7.6-9.9,9.4-12.9c3.4-0.7,4.6-1.6,4.9-1.8l0.5-0.4
		l4.7-18C109.4,284.7,107.4,279.1,107.8,278.9z M88,314.8c-0.5,0-1.1,0.1-1.7,0.1l3.9-5.5c0.4-0.6,0.3-1.4-0.3-1.8
		c-0.6-0.4-1.4-0.3-1.8,0.3l-5,7.1c-1,0-2,0-3-0.1l2.5-5.7c0.3-0.7,0-1.4-0.7-1.7c-0.7-0.3-1.4,0-1.7,0.7l-2.9,6.6
		c-1.1-0.1-2.3-0.2-3.4-0.2l1.3-6.5c0.1-0.7-0.3-1.4-1-1.5c-0.7-0.1-1.4,0.3-1.5,1l-1.4,6.8c-0.9-0.1-1.8-0.2-2.6-0.3
		c-0.8-0.1-1.7-0.2-2.6-0.4l0.2-7.4c0-0.7-0.6-1.3-1.3-1.3c-0.7,0-1.3,0.6-1.3,1.3l-0.2,7.1c-1.2-0.2-2.4-0.4-3.7-0.6l-0.9-7.9
		c-0.1-0.7-0.7-1.2-1.5-1.2c-0.7,0.1-1.2,0.7-1.2,1.5L57,312c-1.1-0.2-2.2-0.5-3.2-0.7l-2.6-8.5c-0.2-0.7-0.9-1.1-1.6-0.9
		c-0.7,0.2-1.1,0.9-0.9,1.6l2.1,7c-0.4-0.1-0.8-0.2-1.2-0.4c-2.1-3.5-3.7-8.3-4.7-11.6c5.3,2.1,13.5,4.5,26.2,6
		c11.2,1.4,18.8,1.4,23.8,0.9C93.2,308.4,90.7,312.1,88,314.8z M101.7,300.6c-0.8,0.4-2.1,0.8-3.9,1.1l-0.4-0.2c0,0-0.1,0.1-0.2,0.3
		c-4.8,0.7-12.9,0.9-25.6-0.7c-19.1-2.3-28.9-6.8-31.8-9.1c-0.2-1.4-0.5-4.9-0.5-9.4c4.7,2.8,14.9,7.4,31.7,9.4
		c16.6,2,28.2,0.2,33.4-1.4L101.7,300.6z"></path>
	<g>
		<path fill="#162636" d="M118,83.6l-2.8-2.1c0.3-0.4,7.2-9.5,14.8-8.6l-0.4,3.5C124.8,75.8,119.6,81.4,118,83.6z"></path>
	</g>
	<g>
		<path fill="#162636" d="M264.3,179.5c-4.1-0.5-7.9,2.4-8.4,6.6c-0.3,2.5,0.7,4.9,2.4,6.5l-1.7,14c3,0,6.4,0.2,8.8,0.6l0.2-1.7
			l0.4-3.5l1-8.2c2.1-1.1,3.6-3.2,3.9-5.7C271.4,183.8,268.5,180,264.3,179.5z"></path>
		<path fill="#162636" d="M262.3,232c-2.3-0.1-4.4-0.2-6.3-0.4c-0.9-0.1-1.7-0.2-2.5-0.4l-1.1,9.2c-10.2,7.5-37.4,3.7-37.4,3.7
			l3,10.1c28.1-0.8,35.6-5.3,42.9-12L262.3,232z"></path>
	</g>
	<g>
		<path fill="#162636" d="M162.5,206.4c0.5-4.1-2.4-7.9-6.6-8.4c-4.1-0.5-7.9,2.4-8.4,6.6c-0.3,2.5,0.7,4.9,2.4,6.5l-0.4,3.2
			c0.4,0.1,0.7,0.2,1,0.4c1.3,0.8,1.8,2.1,1.5,3.8c-0.3,1.9-2.2,4.8-3.7,5.3c0,0,0,0,0,0l-0.3,2.8c3.1,0.1,6.8,0,8-0.3
			c0.3-0.1,0.6-0.1,0.9,0l1.7-14.1C160.7,211,162.2,208.9,162.5,206.4z"></path>
		<path fill="#162636" d="M143.8,261l8.7,1.1l1.4-11c-2.6,0.3-4.7,0.5-8.9,0.5L143.8,261z"></path>
	</g>
	<g>
		<polygon fill="#162636" points="254.7,204.9 256.8,205 257.7,197.5 		"></polygon>
		<path fill="#162636" d="M272,203.5c-1.7-1.7-3.7-1.6-4.4-1.6l-1.7-0.1l-0.4,3.5l2.3,0.1l0.2,0c0,0,0.8-0.1,1.6,0.6
			c0.9,0.9,2.3,3.3,1.4,10.4c-1.5,12-1.8,12.3-5.6,12.1c-0.6,0-1.3,0-2-0.1c-1.9-0.1-7.6,0.3-9.9-0.5c-1.8-0.6-0.7-2.6,0-2.6
			c1.7,0,6.7-0.2,11.8,0.4l0.2-1.6c-8.2-0.9-10-0.8-12-1c-2-0.2-1.2-2.9,0.7-3c1.9,0,6.5-0.6,11.5-0.2l0.1-1.7
			c-8.4-0.6-11,0.5-12.8-0.1c-1.8-0.5-1.2-3.3,0.8-3.3s6.6-0.3,12.2,0.1l0.1-1.8c-9.1-0.7-10.1-0.6-12.4-0.8
			c-2.3-0.1-2.9-2.9-0.3-3.5c2.6-0.6,7.6-0.3,13.4,0.2l0.1-1.8c-3.6-1-13.1-1.2-15.1-0.3c-2.1,0.9-3.5,5-0.7,6.9
			c-1.5,0.9-1.9,4.3-0.9,5.3c-4.6-2.3-13.9-3.8-22.4-4.3c-1.3-0.1-2.6-0.2-3.9-0.2c-9.6-0.6-14.3-3.7-14.4-3.7l-1.9,2.9
			c0.2,0.1,5.5,3.6,16.1,4.3c1.3,0.1,2.6,0.2,3.9,0.2c8.5,0.5,18.2,1.1,21.1,3.7c0,0,0.5,1.7,1,2.5c-0.3,0.6-0.5,1.2-0.5,1.9
			c0,0.9,0.3,2.5,2.3,3.6c1.1,0.7,2.8,1.1,4.9,1.3c2.1,0.3,4.6,0.4,7.3,0.5c0.7,0,1.4,0,2,0.1c7.3,0.3,7.9-3.9,9.3-15.2
			C275.3,210.3,274.5,205.8,272,203.5z"></path>
		<path fill="#162636" d="M258.3,192.6c-0.6-0.5-1.1-1.2-1.5-1.9c-0.1,0-0.2,0-0.3,0c-2.1,0.4-3.7,2.8-5.5,5.6c-0.6,1-1.4,2.8-2,3.6
			c-9.9-4.7-25.6-9.1-32.1-10.1c3.5-7.1,12.5-27.2,16.9-41l-4.4,0.6c-5.3,16.3-15.6,39.3-16.7,40.9l-1.9,2.8l3.3,0
			c1.9,0,23.1,4.8,34.5,10.7l1.1,0.6l0.9-0.8c1.1-1,2.2-3.4,3.3-5.1c0.8-1.2,2.2-3.4,3-4c0.5,0.1,0.8,0.3,1,0.6L258.3,192.6z"></path>
	</g>
	<g>
		<path fill="#162636" d="M156.7,189.1c-6.7-0.8-8-4.9-8.3-6.8c-0.6-4.2,2.5-9.4,6.2-10.5c2.3-0.7,3.9,0,4.8,0.7
			c2.4,1.8,2.5,5.2,2.5,5.6c0,1.1-0.8,2-1.9,2c-1.1,0-2-0.8-2-1.9c0-0.8-0.3-2.1-0.9-2.5c-0.3-0.2-0.7-0.2-1.4,0
			c-1.5,0.4-3.7,3.5-3.4,6.1c0.4,2.9,3.9,3.5,6.7,3.5c2.8,0,4.7-0.6,5.7-1.8c2-2.3,1.3-7.5,0.5-12.5c-0.3-2.2-0.7-4.6-0.8-6.8
			c-0.3-4.8,2.3-12.2,4.1-17.5c0.1-0.2,0.1-0.4,0.2-0.6c-5,3.7-9.6,3.8-12.1,3.4c-0.2,1-0.5,2.7-0.2,4.9c0.1,1.1-0.7,2.1-1.7,2.2
			c-1.1,0.1-2.1-0.7-2.2-1.7c-0.6-5.5,1-8.4,1.2-8.7c0.5-0.8,1.5-1.2,2.4-0.8c0.2,0.1,6.4,2.3,12.9-4.8c0.8-0.9,2.4-2.6,4.1-1.6
			c1.9,1.1,1.2,3.1-0.9,9c-1.8,5.1-4.2,12-3.9,16c0.1,2.1,0.5,4.3,0.8,6.5c0.9,6.1,1.8,12-1.4,15.7c-1.8,2.1-4.7,3.2-8.7,3.1
			C158.3,189.2,157.5,189.2,156.7,189.1z"></path>
	</g>
	<g>
		<path fill="#162636" d="M182.3,188.9c-1.5-0.2-2.9-0.9-4.1-2.1c-3-3.1-3.5-8.7-2.3-12.1c0.7-2.1,2.1-3.3,3.9-3.6
			c1.1-0.1,2.1,0.6,2.2,1.7c0.1,1.1-0.6,2.1-1.7,2.2c-0.2,0-0.4,0.4-0.7,1c-0.8,2.2-0.3,6.2,1.5,8c0.9,0.9,1.9,1.1,3.2,0.7
			c2.8-0.8,3.6-4.1,3.8-6c0.7-5.5-1.8-13-7-16.1c-5.8-3.4-6.6-9.1-5.5-13.4c1.4-5.2,5.5-8.8,10-8.9c2.9,0,4.6,1.3,5.5,2.4
			c2.9,3.7,1.4,10,1.2,10.7c-0.3,1.1-1.3,1.7-2.4,1.4c-1.1-0.3-1.7-1.3-1.4-2.4c0.3-1.3,0.9-5.5-0.5-7.3c-0.3-0.4-0.9-0.9-2.4-0.9
			c-2.7,0-5.3,2.5-6.2,6c-0.4,1.4-1.2,6.1,3.7,9c6.9,4,9.7,13.3,8.9,19.9c-0.6,4.8-3,8.2-6.6,9.3C184.3,188.9,183.3,189,182.3,188.9
			z"></path>
	</g>
	<path fill="#162636" d="M146.2,85c0,0,3.8-2.2,10.7,2.6C153.3,87.5,147.6,87.3,146.2,85z"></path>
	<g>
		<path fill="#162636" d="M193.2,43.2c0,0-0.1,0-0.1,0c0,0,0,0,0,0C193.2,43.2,193.2,43.2,193.2,43.2z"></path>
		<path fill="#162636" d="M193.2,43.2c0.2,0.1,0.5,0.2,0.8,0.3C193.7,43.4,193.5,43.3,193.2,43.2z"></path>
	</g>
	<path fill="#162636" d="M159,227.4c-0.8-0.9-1.9-1.4-3-1.1c-1.5,0.3-7.5,0.4-10.5,0.1c0.9-1.1,2.3-2.3,2.9-2.7
		c1.5-0.6,3.3-3.5,3.7-5.3c0.3-1.6-0.3-3-1.5-3.8c-1.1-0.7-2.5-0.7-4.3-0.2c-3,0.9-7.1,3.6-8.7,6.7c-0.9,1.9-3.2,4-4.9,5.4
		c-3.2-4.7-12.8-18.7-19.2-25.8c-5.6-6.2-13.3-10.4-17.2-12.3c2.8-2.4,6.6-5.8,7.3-7.4c0-0.1,0.2-0.4,0.4-0.7
		c1.4-2.3,5-8.3,6.2-15.5c1.5-9.1-1.4-16.9-8.6-22.7c-18.2-14.5-27.4-7.9-27.8-7.6l-0.1,0.1l-0.1,0.1c-0.4,0.4-8.8,9.6-9.5,29.2
		c-0.7,18.8-0.1,22.5,0,22.9c0.1,0.4,0.7,3.2,2.9,4.3c1.8,3.9,11,22.3,26.1,32.9c10.7,7.5,23,14.2,30.3,18.3c2.9,1.6,5.4,3,5.9,3.4
		l0.1,0.1c0.3,0.2,7.6,4.9,13.5,5.6c0.5,0.1,0.9,0.1,1.4,0.1c4.8,0,6.9-0.2,9.8-0.5c1.3-0.2,2.3-1,2.8-2.2c0.5-1.2,0.4-2.6-0.1-3.9
		c0.5-0.4,0.8-0.9,1-1.5c0.5-1.2,0.4-2.6-0.1-3.9c0.5-0.4,0.8-0.9,1-1.5c0.5-1.2,0.4-2.6-0.1-3.9c0.5-0.4,0.8-0.9,1-1.5
		C160.5,231.1,160.2,228.8,159,227.4z M147.2,220.5c0.1,0,0.2-0.1,0.3-0.1C147.4,220.4,147.3,220.4,147.2,220.5z M153.8,248.2
		c-1.5,0.4-4.8,0.6-9.4,0.2c-4.1-0.3-10.6-4.1-12.9-5.6c-0.8-0.6-2.6-1.6-6.3-3.6c-7.2-4-19.4-10.7-30-18.1c-14-9.8-23.6-28-25.2-32
		l-0.3-0.8l-0.9-0.2c-0.5-0.1-1-1.2-1.2-1.9c-0.1-0.4-0.6-4.3,0.1-22.1c0.6-16.9,7.4-25.6,8.5-26.8c1-0.6,8.6-4.2,23.4,7.6
		c6.2,4.9,8.6,11.4,7.3,19.3c-1.1,6.5-4.5,12.1-5.7,14.2c-0.3,0.5-0.5,0.8-0.6,1c-0.5,1-4.8,4.9-8.6,8l-2.2,1.9l2.7,1.1
		c0.1,0,11.3,4.7,18.6,12.6c7.4,8.1,19.2,26,19.9,26.9c0.7,0.9,1.7,1,2.5,0.5c0.7-0.5,5.5-3.9,7.4-7.8c0.9-1.8,3.7-4,6.2-4.8
		c0.9-0.3,1.5-0.3,1.7-0.3c0,0.7-1,2.4-1.6,2.9c-1.6,0.7-4.4,3.7-5.3,5c-0.3,0.6-0.8,1.4-0.5,2.4c0.4,1.6,2.2,2.1,7.7,2.2
		c2.6,0,6.5-0.2,7.4-0.3s1.8,2.1-0.1,2.8c-1.3,0.4-5.9,1.4-9.4,1.1l-0.1,1.3c4,0.4,7.7,0.4,8.7,0.2c1.3-0.2,1.7,1.9,0.1,2.5
		c-1.1,0.4-5.7,1.3-9.2,0.9l-0.1,1.3c2.8,0.5,6.9,0.8,8.5,0.6s1.5,2.4,0.1,2.8c-1.3,0.4-5.9,1-9.4,0.6l-0.1,1.3
		c3.2,0.5,7,0.7,8.2,0.6C155.1,245.7,155.4,247.8,153.8,248.2z"></path>
	<path fill="#162636" d="M78.6,124.5c0,0,10.3-3.1,23.7,8.2c-17.1-10.2-29.4-2.2-29.4-2.2L78.6,124.5z"></path>
	<path fill="#162636" d="M218.9,148.4c0,0,5.6,0.3,11.7-6.3c-3,5.6-3.8,8.4-11.6,10.5C217.4,153.1,218.9,148.4,218.9,148.4z"></path>
	<path fill="#FFFFFF" d="M153.8,248.2c-1.5,0.4-4.8,0.6-9.4,0.2c-4.1-0.3-10.6-4.1-12.9-5.6c-0.8-0.6-2.6-1.6-6.3-3.6
		c-7.2-4-19.4-10.7-30-18.1c-14-9.8-23.6-28-25.2-32l-0.3-0.8l-0.9-0.2c-0.5-0.1-1-1.2-1.2-1.9c-0.1-0.4-0.6-4.3,0.1-22.1
		c0.6-16.9,7.4-25.6,8.5-26.8c1-0.6,8.6-4.2,23.4,7.6c6.2,4.9,8.6,11.4,7.3,19.3c-1.1,6.5-4.5,12.1-5.7,14.2c-0.3,0.5-0.5,0.8-0.6,1
		c-0.5,1-4.8,4.9-8.6,8l-2.2,1.9l2.7,1.1c0.1,0,11.3,4.7,18.6,12.6c7.4,8.1,19.2,26,19.9,26.9c0.7,0.9,1.7,1,2.5,0.5
		c0.7-0.5,5.5-3.9,7.4-7.8c0.9-1.8,3.7-4,6.2-4.8c0.9-0.3,1.5-0.3,1.7-0.3c0,0.7-1,2.4-1.6,2.9c-1.6,0.7-4.4,3.7-5.3,5
		c-0.3,0.6-0.8,1.4-0.5,2.4c0.4,1.6,2.2,2.1,7.7,2.2c2.6,0,6.5-0.2,7.4-0.3s1.8,2.1-0.1,2.8c-1.3,0.4-5.9,1.4-9.4,1.1l-0.1,1.3
		c4,0.4,7.7,0.4,8.7,0.2c1.3-0.2,1.7,1.9,0.1,2.5c-1.1,0.4-5.7,1.3-9.2,0.9l-0.1,1.3c2.8,0.5,6.9,0.8,8.5,0.6s1.5,2.4,0.1,2.8
		c-1.3,0.4-5.9,1-9.4,0.6l-0.1,1.3c3.2,0.5,7,0.7,8.2,0.6C155.1,245.7,155.4,247.8,153.8,248.2z"></path>
	<path fill="#FFFFFF" d="M205.8,68.8c-1.2-4.2-3.2-7-5.3-10c-0.7-0.9-1.3-1.9-2-3c0,0,0-1.7,2.6-7.4c-9.1-0.6-13.8-7.2-14-7.5
		l1.1-0.8c0.1,0.1,1.9,1.6,4.9,2.9c-2.3-8.8-7.6-18.2-10.5-22.7c-0.9,2-2.1,3.8-3.6,5.2c-2.5,2.5-5.6,3.7-8.8,3.6
		c-4.9-0.2-7-3.6-7.3-6.8c-0.4-3.6,1.5-5.5,3-6.5l1.4-0.4l0.6,1.3c-2.2,2.8-1.5,6.4,1,6.1c4-0.5,3.5-6,2.8-7.5c-0.8-2-4-1.9-5.9-1.6
		c-8.8,1.1-9.1,10.4-9.2,10.8l0,1.9l-1.8-0.1c-0.2,0-13.8-1.7-22.8,8.1c0.2,2.4,0.8,3.4,1,3.6l1.3,1l-4.2,4.4
		c-0.2,0.2-1.4,2-2.2,4.9c1.7-1.8,4.6-4.3,9.2-7.1l0.3,3.8c-5.8,3.6-8.6,9.2-9.5,11.4c3-4.8,7.7-7.6,10.2-9.5l0.4,4.1
		c-2.6,1.9-4.8,4-6.6,6.9c1-1.1,2.2-2.1,3.6-3c2.9-1.7,6.4-1.6,9.2,1.1c1.8,1.7,2.5,4.2,2.5,4.2s-5.4-5.1-9.9-2.3
		c-2.5,1.5-4.2,3.7-4.6,5.9c-0.2,1.2-0.1,2.3,0.5,3c0.8,1.1,2.6,1.6,4.2,2.1c1.3,0.4,2.5,0.8,3.5,1.5c0,0-2.6,1.6-3.9,1.8
		c2.8,4.3,4.5,7.5,4.9,9.3c0.5,0.4,0.9,0.7,1.2,1.1c2.2,2.4,0.2,6.3-1,8c2.5,6.4,13.2,18.4,29.1,20.4c7.9,1,13.9-0.2,17.4-3.4
		c3.2-2.9,3.7-6.7,3.7-9.4l-0.1-2.2c-2.5-0.7-5-1.9-7.4-3c-3.5-1.6-7.4-4.3-9.3-3.6c-1.8,0.7-5,3.1-5,3.1s1.4-3.9,3.8-5.4
		c2.5-1.5,7.5,0.6,11.9,2.7c4.1,1.9,8.8,4.2,12.1,3.1C204.6,91.3,208.6,78.1,205.8,68.8z M142.6,60.8c-0.1,0-0.3,0-0.5,0.1
		c-0.2,0-0.4,0-0.6,0.1c-0.1,0-0.2,0-0.3,0.1c-0.1,0-0.2,0-0.4,0.1c-0.2,0-0.5,0.1-0.7,0.2c-0.5,0.1-0.9,0.3-1.3,0.6
		c-0.2,0.1-0.4,0.3-0.6,0.4c-0.2,0.2-0.4,0.3-0.6,0.5c-0.4,0.4-0.7,0.7-1,1.1c-0.6,0.8-1.1,1.3-1.1,1.3s-0.1-0.2-0.1-0.5
		c0-0.3-0.1-0.8,0-1.3c0.1-0.5,0.3-1.1,0.6-1.7c0.3-0.6,0.9-1.2,1.6-1.6c0.3-0.2,0.7-0.4,1.1-0.5l0.3-0.1l0.3,0c0.2,0,0.4,0,0.6,0
		c0.4,0,0.7,0,1,0.1c0.3,0.1,0.6,0.2,0.8,0.3c0.5,0.2,0.8,0.5,1.1,0.7c0.2,0.2,0.3,0.4,0.3,0.4S142.9,60.8,142.6,60.8z M146.2,85
		c0,0,3.8-2.2,10.7,2.6C153.3,87.5,147.6,87.3,146.2,85z M180.4,42.8c0,0-0.2-1.9-2.3-3c-0.7-0.3-1.6-0.4-2.6-0.3l0.2,0.1
		c4,3,0.6,5.7-0.9,6.7c-1.5,1-3.4,2.1-6.2,0.8c-2.8-1.3-0.5-4-0.5-4l1.8-1.5c-4.8,2.8-9.4,7.2-9.4,7.2c4.2-7.2,14.9-12.6,18.6-12
		c3.7,0.7,3.5,4,3.5,4L180.4,42.8z M194.2,54.3c0.6-1.2,1.6-2,2.2-1.7c0.6,0.3,0.6,1.6-0.1,2.8s-1.6,2-2.2,1.7
		C193.5,56.8,193.5,55.6,194.2,54.3z M187.8,74.4c-1-0.1-2.2-1.3-2.9-1.8l1-1.9c0.6,0.5,2.7,0.3,4.3,0c1.5-0.2,3.4-0.8,5.5-1.7
		c3.7-1.5,6.5-2.7,7.3-2.6l0.2,1.4C200.4,68.8,193.5,75.1,187.8,74.4z"></path>
	<path fill="#162636" d="M218.2,156.5l12-4.2l-2.1,4.1c0,0-5.6,3.1-8.9,3.9C218.2,158.4,218.2,156.5,218.2,156.5z"></path>
	<path fill="#5596C0" d="M47.3,259.3c7.7,7.1,17.9,12.1,30.5,14.9c3.9,0.9,7.9,1.5,11.7,2c17.6,2.2,32.1-1.5,42.6-5.9
		c-0.2,0.1-0.5,0.1-0.7,0.2c-8.8,2.8-23.2,5.8-41.8,3.5c-3.7-0.5-7.5-1.1-11.3-1.9C47,265.1,38.4,246.3,36,235.7
		c-1.6-7-1.3-14.6,0.7-21.9c1.9-7.1,5.5-13.8,10.3-19.3c0.2-0.6,0.4-2,0.4-3.7c-11.7,12-17.1,29.4-13.5,45.4
		C35.8,245,40.5,253,47.3,259.3z"></path>
	<path fill="#162636" d="M47.4,190.8c0,1.7-0.2,3.1-0.4,3.7c-4.8,5.6-8.4,12.2-10.3,19.3c-2,7.3-2.2,14.8-0.7,21.9
		c2.4,10.6,11,29.4,42.3,36.3c3.8,0.8,7.6,1.5,11.3,1.9c18.6,2.3,33-0.6,41.8-3.5c0.2-0.1,0.5-0.1,0.7-0.2
		c-10.5,4.5-25,8.1-42.6,5.9c-3.8-0.5-7.8-1.2-11.7-2c-12.6-2.8-22.8-7.8-30.5-14.9c-6.8-6.3-11.5-14.3-13.4-23.1
		C30.3,220.3,35.7,202.8,47.4,190.8 M50.6,183.3c-16.4,12.6-24.5,34.2-20.2,53.7c2.1,9.5,7.1,18.2,14.5,25
		c8.1,7.5,18.9,12.8,32.1,15.7c4.2,0.9,8.2,1.6,12,2.1c38.2,4.7,62.4-16.8,63.4-17.6c0,0-2.7-1.2-5.2-1.5c-1.3-0.2-2.6-0.1-3.4,0.4
		c-3,1.8-7.4,4.2-13.5,6.2c-9,2.9-22.7,5.5-40.3,3.3c-3.5-0.4-7.1-1-10.9-1.9c-29.4-6.5-37.4-23.9-39.6-33.6
		c-2.9-13.3,1.1-27.7,10.3-38.3C51.7,194.5,50.6,183.3,50.6,183.3L50.6,183.3z"></path>
	<polygon fill="#162636" points="107.8,278.9 108.6,285.2 116.4,278 	"></polygon>
</g>
</svg>
